# xmcd
#
# Track frame offsets:
#  150
#  22315
#  41302
#  60637
#  81557
#  104385
#  125545
#  151882
#  164102
#  183570
#  204722
#
# Disc length: 3096 seconds
#
# Revision: 3
# Processed by: cddbd v1.5.1PL2 Copyright (c) Steve Scherf et al.
# Submitted via: Collectorz.com_Music_Collector 6.11
#
DISCID=9e0c160b
DTITLE=Various Artist - Windham Hill's Rhythm 'n' Blues
DYEAR=2000
DGENRE=Blues
TTITLE0=Etta James - Here I Am (Come And Take Me)
TTITLE1=The Fabulous Thunderbirds - High Water
TTITLE2=Tuck and Patti - You
TTITLE3=Taj Mahal - Quenn Bee
TTITLE4=Phil Perry - Do What Comes Natural
TTITLE5=The Fabulous Thunderbirds - Roll Of The Dice
TTITLE6=Peabo Bryson - Did You Ever Know
TTITLE7=Taj Mahal - Lovin' In My Baby's Eyes
TTITLE8=Etta James - Done In The Dark
TTITLE9=Peabo Bryson - On And On
TTITLE10=Phil Perry - Let's Stay Together (Medley)
EXTD=
EXTT0=
EXTT1=
EXTT2=
EXTT3=
EXTT4=
EXTT5=
EXTT6=
EXTT7=
EXTT8=
EXTT9=
EXTT10=
PLAYORDER=
